<svg version="1.1" xmlns="http://www.w3.org/2000/svg" xmlns:xlink="http://www.w3.org/1999/xlink" x="0px" y="0px"
     viewBox="0 0 141.5 42" style="enable-background:new 0 0 141.5 42;" xml:space="preserve">
<style type="text/css">
	.yellow{fill:#FFBF40;}
	.white > path {fill:#FFFFFF;}
</style>
<path class="yellow" d="M138.4,42H3.2C1.4,42,0,40.6,0,38.8V3.2C0,1.4,1.4,0,3.2,0h135.2c1.8,0,3.2,1.4,3.2,3.2v35.6
    C141.5,40.6,140.1,42,138.4,42z"/>
<g class="white">
    <path d="M34.4,17.9v9.7h-1.7v-9.7h-2.6v-1.6h6.9v1.6H34.4z"/>
    <path d="M42.3,22.8l3.5,4.8h-2.1L40.5,23h-0.3v4.6h-1.7V16.3h2c1.5,0,2.6,0.3,3.2,0.8c0.7,0.6,1.1,1.5,1.1,2.5
        c0,0.8-0.2,1.5-0.7,2.1C43.7,22.3,43.1,22.6,42.3,22.8z M40.2,21.5h0.5c1.6,0,2.4-0.6,2.4-1.9c0-1.2-0.8-1.7-2.4-1.7h-0.6V21.5z"/>
    <path d="M49.3,22.7l-3.7-6.4h2l2.6,4.5l2.6-4.5h2L51,22.7v4.9h-1.7V22.7z"/>
    <path d="M62.3,16.3v11.3h-1.7V16.3H62.3z"/>
    <path d="M68.2,17.9v9.7h-1.7v-9.7h-2.6v-1.6h6.9v1.6H68.2z"/>
    <path d="M78.6,16.3V26H82v1.6h-5V16.3H78.6z"/>
    <path d="M85.3,16.3v11.3h-1.7V16.3H85.3z"/>
    <path d="M88.6,16.3l3.1,7.8l3.2-7.8h1.9l-5.1,12.2l-5-12.2H88.6z"/>
    <path d="M104.4,17.9h-4.5v2.7h4.4v1.6h-4.4V26h4.5v1.6h-6.2V16.3h6.2V17.9z"/>
</g>
</svg>